<?xml version="1.0" standalone="no"?><!DOCTYPE svg PUBLIC "-//W3C//DTD SVG 1.1//EN" "http://www.w3.org/Graphics/SVG/1.1/DTD/svg11.dtd"><svg xmlns:xlink="http://www.w3.org/1999/xlink" version="1.1" class="highcharts-root" style="font-family:&quot;Lucida Grande&quot;, &quot;Lucida Sans Unicode&quot;, Arial, Helvetica, sans-serif;font-size:12px;" xmlns="http://www.w3.org/2000/svg" width="600" height="400" viewBox="0 0 600 400"><desc>Created with Highcharts 7.0.1</desc><defs><clipPath id="highcharts-o5bvv9v-24"><rect x="0" y="0" width="298" height="520" fill="none"></rect></clipPath></defs><rect fill="#ffffff" class="highcharts-background" x="0" y="0" width="600" height="400" rx="0" ry="0"></rect><rect fill="none" class="highcharts-plot-background" x="70" y="47" width="520" height="298"></rect><g class="highcharts-grid highcharts-xaxis-grid " data-z-index="1"><path fill="none" data-z-index="1" class="highcharts-grid-line" d="M 70 107.5 L 590 107.5" opacity="1"></path><path fill="none" data-z-index="1" class="highcharts-grid-line" d="M 70 166.5 L 590 166.5" opacity="1"></path><path fill="none" data-z-index="1" class="highcharts-grid-line" d="M 70 226.5 L 590 226.5" opacity="1"></path><path fill="none" data-z-index="1" class="highcharts-grid-line" d="M 70 285.5 L 590 285.5" opacity="1"></path><path fill="none" data-z-index="1" class="highcharts-grid-line" d="M 70 345.5 L 590 345.5" opacity="1"></path><path fill="none" data-z-index="1" class="highcharts-grid-line" d="M 70 47.5 L 590 47.5" opacity="1"></path></g><g class="highcharts-grid highcharts-yaxis-grid " data-z-index="1"><path fill="none" stroke="#e6e6e6" stroke-width="1" data-z-index="1" class="highcharts-grid-line" d="M 69.5 47 L 69.5 345" opacity="1"></path><path fill="none" stroke="#e6e6e6" stroke-width="1" data-z-index="1" class="highcharts-grid-line" d="M 121.5 47 L 121.5 345" opacity="1"></path><path fill="none" stroke="#e6e6e6" stroke-width="1" data-z-index="1" class="highcharts-grid-line" d="M 173.5 47 L 173.5 345" opacity="1"></path><path fill="none" stroke="#e6e6e6" stroke-width="1" data-z-index="1" class="highcharts-grid-line" d="M 225.5 47 L 225.5 345" opacity="1"></path><path fill="none" stroke="#e6e6e6" stroke-width="1" data-z-index="1" class="highcharts-grid-line" d="M 277.5 47 L 277.5 345" opacity="1"></path><path fill="none" stroke="#e6e6e6" stroke-width="1" data-z-index="1" class="highcharts-grid-line" d="M 329.5 47 L 329.5 345" opacity="1"></path><path fill="none" stroke="#e6e6e6" stroke-width="1" data-z-index="1" class="highcharts-grid-line" d="M 381.5 47 L 381.5 345" opacity="1"></path><path fill="none" stroke="#e6e6e6" stroke-width="1" data-z-index="1" class="highcharts-grid-line" d="M 433.5 47 L 433.5 345" opacity="1"></path><path fill="none" stroke="#e6e6e6" stroke-width="1" data-z-index="1" class="highcharts-grid-line" d="M 485.5 47 L 485.5 345" opacity="1"></path><path fill="none" stroke="#e6e6e6" stroke-width="1" data-z-index="1" class="highcharts-grid-line" d="M 537.5 47 L 537.5 345" opacity="1"></path><path fill="none" stroke="#e6e6e6" stroke-width="1" data-z-index="1" class="highcharts-grid-line" d="M 590.5 47 L 590.5 345" opacity="1"></path></g><rect fill="none" class="highcharts-plot-border" data-z-index="1" x="70" y="47" width="520" height="298"></rect><g class="highcharts-axis highcharts-xaxis " data-z-index="2"><path fill="none" class="highcharts-tick" stroke="#ccd6eb" stroke-width="1" d="M 70 107.5 L 60 107.5" opacity="1"></path><path fill="none" class="highcharts-tick" stroke="#ccd6eb" stroke-width="1" d="M 70 166.5 L 60 166.5" opacity="1"></path><path fill="none" class="highcharts-tick" stroke="#ccd6eb" stroke-width="1" d="M 70 226.5 L 60 226.5" opacity="1"></path><path fill="none" class="highcharts-tick" stroke="#ccd6eb" stroke-width="1" d="M 70 285.5 L 60 285.5" opacity="1"></path><path fill="none" class="highcharts-tick" stroke="#ccd6eb" stroke-width="1" d="M 70 345.5 L 60 345.5" opacity="1"></path><path fill="none" class="highcharts-tick" stroke="#ccd6eb" stroke-width="1" d="M 70 46.5 L 60 46.5" opacity="1"></path><path fill="none" class="highcharts-axis-line" stroke="#ccd6eb" stroke-width="1" data-z-index="7" d="M 69.5 47 L 69.5 345"></path></g><g class="highcharts-axis highcharts-yaxis " data-z-index="2"><text x="330" data-z-index="7" text-anchor="middle" transform="translate(0,0)" class="highcharts-axis-title" style="color:#666666;fill:#666666;" y="383"><tspan>Values</tspan></text><path fill="none" class="highcharts-axis-line" data-z-index="7" d="M 70 345 L 590 345"></path></g><g class="highcharts-series-group" data-z-index="3"><g data-z-index="0.1" class="highcharts-series highcharts-series-0 highcharts-area-series highcharts-color-0 " transform="translate(590,345) rotate(90) scale(-1,1) scale(1 1)" clip-path="url(#highcharts-o5bvv9v-24)"><path fill="rgb(124,181,236)" fill-opacity="0.75" d="M 268.2 364 L 208.6 416 L 149 468 L 89.4 364 L 29.8 312 L 29.8 520 L 89.4 520 L 149 520 L 208.6 520 L 268.2 520" class="highcharts-area" data-z-index="0"></path><path fill="none" d="M 268.2 364 L 208.6 416 L 149 468 L 89.4 364 L 29.8 312" class="highcharts-graph" data-z-index="1" stroke="#7cb5ec" stroke-width="2" stroke-linejoin="round" stroke-linecap="round"></path></g><g data-z-index="0.1" class="highcharts-markers highcharts-series-0 highcharts-area-series highcharts-color-0 " transform="translate(590,345) rotate(90) scale(-1,1) scale(1 1)" clip-path="none"><path fill="#7cb5ec" d="M 272 364 A 4 4 0 1 1 271.9999980000002 363.99600000066664 Z" class="highcharts-point highcharts-color-0"></path><path fill="#7cb5ec" d="M 212 416 A 4 4 0 1 1 211.99999800000018 415.99600000066664 Z" class="highcharts-point highcharts-color-0"></path><path fill="#7cb5ec" d="M 153 468 A 4 4 0 1 1 152.99999800000018 467.99600000066664 Z" class="highcharts-point highcharts-color-0"></path><path fill="#7cb5ec" d="M 93 364 A 4 4 0 1 1 92.99999800000016 363.99600000066664 Z" class="highcharts-point highcharts-color-0"></path><path fill="#7cb5ec" d="M 33 312 A 4 4 0 1 1 32.99999800000017 311.99600000066664 Z" class="highcharts-point highcharts-color-0"></path></g><g data-z-index="0.1" class="highcharts-series highcharts-series-1 highcharts-bar-series highcharts-color-1 " transform="translate(590,345) rotate(90) scale(-1,1) scale(1 1)" clip-path="url(#highcharts-o5bvv9v-24)"><rect x="269.5" y="416.5" width="15" height="104" fill="#434348" stroke="#ffffff" stroke-width="1" class="highcharts-point highcharts-color-1"></rect><rect x="209.5" y="364.5" width="15" height="156" fill="#434348" stroke="#ffffff" stroke-width="1" class="highcharts-point highcharts-color-1"></rect><rect x="150.5" y="260.5" width="15" height="260" fill="#434348" stroke="#ffffff" stroke-width="1" class="highcharts-point highcharts-color-1"></rect><rect x="90.5" y="156.5" width="15" height="364" fill="#434348" stroke="#ffffff" stroke-width="1" class="highcharts-point highcharts-color-1"></rect><rect x="31.5" y="208.5" width="15" height="312" fill="#434348" stroke="#ffffff" stroke-width="1" class="highcharts-point highcharts-color-1"></rect></g><g data-z-index="0.1" class="highcharts-markers highcharts-series-1 highcharts-bar-series highcharts-color-1 " transform="translate(590,345) rotate(90) scale(-1,1) scale(1 1)" clip-path="none"></g><g data-z-index="0.1" class="highcharts-series highcharts-series-2 highcharts-bar-series highcharts-color-2 " transform="translate(590,345) rotate(90) scale(-1,1) scale(1 1)" clip-path="url(#highcharts-o5bvv9v-24)"><rect x="251.5" y="312.5" width="15" height="208" fill="#90ed7d" stroke="#ffffff" stroke-width="1" class="highcharts-point highcharts-color-2"></rect><rect x="192.5" y="364.5" width="15" height="156" fill="#90ed7d" stroke="#ffffff" stroke-width="1" class="highcharts-point highcharts-color-2"></rect><rect x="132.5" y="364.5" width="15" height="156" fill="#90ed7d" stroke="#ffffff" stroke-width="1" class="highcharts-point highcharts-color-2"></rect><rect x="72.5" y="52.5" width="15" height="468" fill="#90ed7d" stroke="#ffffff" stroke-width="1" class="highcharts-point highcharts-color-2"></rect><rect x="13.5" y="520.5" width="15" height="0" fill="#90ed7d" stroke="#ffffff" stroke-width="1" class="highcharts-point highcharts-color-2"></rect></g><g data-z-index="0.1" class="highcharts-markers highcharts-series-2 highcharts-bar-series highcharts-color-2 " transform="translate(590,345) rotate(90) scale(-1,1) scale(1 1)" clip-path="none"></g></g><text x="300" text-anchor="middle" class="highcharts-title" data-z-index="4" style="color:#333333;font-size:18px;fill:#333333;" y="24"><tspan>Chart title</tspan></text><text x="300" text-anchor="middle" class="highcharts-subtitle" data-z-index="4" style="color:#666666;fill:#666666;" y="46"></text><g class="highcharts-axis-labels highcharts-xaxis-labels " data-z-index="7"><text x="55" style="color:#666666;cursor:default;font-size:11px;fill:#666666;" text-anchor="end" transform="translate(0,0)" y="81" opacity="1">Apples</text><text x="55" style="color:#666666;cursor:default;font-size:11px;fill:#666666;" text-anchor="end" transform="translate(0,0)" y="141" opacity="1">Oranges</text><text x="55" style="color:#666666;cursor:default;font-size:11px;fill:#666666;" text-anchor="end" transform="translate(0,0)" y="201" opacity="1">Pears</text><text x="55" style="color:#666666;cursor:default;font-size:11px;fill:#666666;" text-anchor="end" transform="translate(0,0)" y="260" opacity="1">Bananas</text><text x="55" style="color:#666666;cursor:default;font-size:11px;fill:#666666;" text-anchor="end" transform="translate(0,0)" y="320" opacity="1">Plums</text></g><g class="highcharts-axis-labels highcharts-yaxis-labels " data-z-index="7"><text x="70" style="color:#666666;cursor:default;font-size:11px;fill:#666666;" text-anchor="middle" transform="translate(0,0)" y="364" opacity="1">0</text><text x="122" style="color:#666666;cursor:default;font-size:11px;fill:#666666;" text-anchor="middle" transform="translate(0,0)" y="364" opacity="1">1</text><text x="174" style="color:#666666;cursor:default;font-size:11px;fill:#666666;" text-anchor="middle" transform="translate(0,0)" y="364" opacity="1">2</text><text x="226" style="color:#666666;cursor:default;font-size:11px;fill:#666666;" text-anchor="middle" transform="translate(0,0)" y="364" opacity="1">3</text><text x="278" style="color:#666666;cursor:default;font-size:11px;fill:#666666;" text-anchor="middle" transform="translate(0,0)" y="364" opacity="1">4</text><text x="330" style="color:#666666;cursor:default;font-size:11px;fill:#666666;" text-anchor="middle" transform="translate(0,0)" y="364" opacity="1">5</text><text x="382" style="color:#666666;cursor:default;font-size:11px;fill:#666666;" text-anchor="middle" transform="translate(0,0)" y="364" opacity="1">6</text><text x="434" style="color:#666666;cursor:default;font-size:11px;fill:#666666;" text-anchor="middle" transform="translate(0,0)" y="364" opacity="1">7</text><text x="486" style="color:#666666;cursor:default;font-size:11px;fill:#666666;" text-anchor="middle" transform="translate(0,0)" y="364" opacity="1">8</text><text x="538" style="color:#666666;cursor:default;font-size:11px;fill:#666666;" text-anchor="middle" transform="translate(0,0)" y="364" opacity="1">9</text><text x="583.046875" style="color:#666666;cursor:default;font-size:11px;fill:#666666;" text-anchor="middle" transform="translate(0,0)" y="364" opacity="1">10</text></g><text x="590" class="highcharts-credits" text-anchor="end" data-z-index="8" style="cursor:pointer;color:#999999;font-size:9px;fill:#999999;" y="395">Highcharts.com</text></svg>