<?xml version="1.0" standalone="no"?><!DOCTYPE svg PUBLIC "-//W3C//DTD SVG 1.1//EN" "http://www.w3.org/Graphics/SVG/1.1/DTD/svg11.dtd"><svg xmlns:xlink="http://www.w3.org/1999/xlink" version="1.1" class="highcharts-root" style="font-family:&quot;Lucida Grande&quot;, &quot;Lucida Sans Unicode&quot;, Arial, Helvetica, sans-serif;font-size:12px;" xmlns="http://www.w3.org/2000/svg" width="600" height="400" viewBox="0 0 600 400"><desc>Created with Highcharts 7.0.1</desc><defs><clipPath id="highcharts-ivd3aej-18"><rect x="0" y="0" width="261" height="520" fill="none"></rect></clipPath></defs><rect fill="#ffffff" class="highcharts-background" x="0" y="0" width="600" height="400" rx="0" ry="0"></rect><rect fill="none" class="highcharts-plot-background" x="70" y="47" width="520" height="261"></rect><g class="highcharts-grid highcharts-xaxis-grid " data-z-index="1"><path fill="none" data-z-index="1" class="highcharts-grid-line" d="M 70 99.5 L 590 99.5" opacity="1"></path><path fill="none" data-z-index="1" class="highcharts-grid-line" d="M 70 151.5 L 590 151.5" opacity="1"></path><path fill="none" data-z-index="1" class="highcharts-grid-line" d="M 70 204.5 L 590 204.5" opacity="1"></path><path fill="none" data-z-index="1" class="highcharts-grid-line" d="M 70 256.5 L 590 256.5" opacity="1"></path><path fill="none" data-z-index="1" class="highcharts-grid-line" d="M 70 308.5 L 590 308.5" opacity="1"></path><path fill="none" data-z-index="1" class="highcharts-grid-line" d="M 70 47.5 L 590 47.5" opacity="1"></path></g><g class="highcharts-grid highcharts-yaxis-grid " data-z-index="1"><path fill="none" stroke="#e6e6e6" stroke-width="1" data-z-index="1" class="highcharts-grid-line" d="M 69.5 47 L 69.5 308" opacity="1"></path><path fill="none" stroke="#e6e6e6" stroke-width="1" data-z-index="1" class="highcharts-grid-line" d="M 121.5 47 L 121.5 308" opacity="1"></path><path fill="none" stroke="#e6e6e6" stroke-width="1" data-z-index="1" class="highcharts-grid-line" d="M 173.5 47 L 173.5 308" opacity="1"></path><path fill="none" stroke="#e6e6e6" stroke-width="1" data-z-index="1" class="highcharts-grid-line" d="M 225.5 47 L 225.5 308" opacity="1"></path><path fill="none" stroke="#e6e6e6" stroke-width="1" data-z-index="1" class="highcharts-grid-line" d="M 277.5 47 L 277.5 308" opacity="1"></path><path fill="none" stroke="#e6e6e6" stroke-width="1" data-z-index="1" class="highcharts-grid-line" d="M 329.5 47 L 329.5 308" opacity="1"></path><path fill="none" stroke="#e6e6e6" stroke-width="1" data-z-index="1" class="highcharts-grid-line" d="M 381.5 47 L 381.5 308" opacity="1"></path><path fill="none" stroke="#e6e6e6" stroke-width="1" data-z-index="1" class="highcharts-grid-line" d="M 433.5 47 L 433.5 308" opacity="1"></path><path fill="none" stroke="#e6e6e6" stroke-width="1" data-z-index="1" class="highcharts-grid-line" d="M 485.5 47 L 485.5 308" opacity="1"></path><path fill="none" stroke="#e6e6e6" stroke-width="1" data-z-index="1" class="highcharts-grid-line" d="M 537.5 47 L 537.5 308" opacity="1"></path><path fill="none" stroke="#e6e6e6" stroke-width="1" data-z-index="1" class="highcharts-grid-line" d="M 590.5 47 L 590.5 308" opacity="1"></path></g><rect fill="none" class="highcharts-plot-border" data-z-index="1" x="70" y="47" width="520" height="261"></rect><g class="highcharts-axis highcharts-xaxis " data-z-index="2"><path fill="none" class="highcharts-tick" stroke="#ccd6eb" stroke-width="1" d="M 70 99.5 L 60 99.5" opacity="1"></path><path fill="none" class="highcharts-tick" stroke="#ccd6eb" stroke-width="1" d="M 70 151.5 L 60 151.5" opacity="1"></path><path fill="none" class="highcharts-tick" stroke="#ccd6eb" stroke-width="1" d="M 70 204.5 L 60 204.5" opacity="1"></path><path fill="none" class="highcharts-tick" stroke="#ccd6eb" stroke-width="1" d="M 70 256.5 L 60 256.5" opacity="1"></path><path fill="none" class="highcharts-tick" stroke="#ccd6eb" stroke-width="1" d="M 70 308.5 L 60 308.5" opacity="1"></path><path fill="none" class="highcharts-tick" stroke="#ccd6eb" stroke-width="1" d="M 70 46.5 L 60 46.5" opacity="1"></path><path fill="none" class="highcharts-axis-line" stroke="#ccd6eb" stroke-width="1" data-z-index="7" d="M 69.5 47 L 69.5 308"></path></g><g class="highcharts-axis highcharts-yaxis " data-z-index="2"><text x="330" data-z-index="7" text-anchor="middle" transform="translate(0,0)" class="highcharts-axis-title" style="color:#666666;fill:#666666;" y="346"><tspan>Values</tspan></text><path fill="none" class="highcharts-axis-line" data-z-index="7" d="M 70 308 L 590 308"></path></g><text x="120" y="77" data-z-index="2" style="position:absolute;color:black;fill:black;"><tspan>Total fruit consumption</tspan></text><g class="highcharts-series-group" data-z-index="3"><g data-z-index="0.1" class="highcharts-series highcharts-series-0 highcharts-bar-series highcharts-color-0 " transform="translate(590,308) rotate(90) scale(-1,1) scale(1 1)" clip-path="url(#highcharts-ivd3aej-18)"><rect x="221.5" y="312.5" width="26" height="208" fill="#7cb5ec" stroke="#ffffff" stroke-width="1" class="highcharts-point highcharts-color-0"></rect><rect x="169.5" y="364.5" width="26" height="156" fill="#7cb5ec" stroke="#ffffff" stroke-width="1" class="highcharts-point highcharts-color-0"></rect><rect x="117.5" y="364.5" width="26" height="156" fill="#7cb5ec" stroke="#ffffff" stroke-width="1" class="highcharts-point highcharts-color-0"></rect><rect x="65.5" y="52.5" width="26" height="468" fill="#7cb5ec" stroke="#ffffff" stroke-width="1" class="highcharts-point highcharts-color-0"></rect><rect x="13.5" y="520.5" width="26" height="0" fill="#7cb5ec" stroke="#ffffff" stroke-width="1" class="highcharts-point highcharts-color-0"></rect></g><g data-z-index="0.1" class="highcharts-markers highcharts-series-0 highcharts-bar-series highcharts-color-0 " transform="translate(590,308) rotate(90) scale(-1,1) scale(1 1)" clip-path="none"></g><g data-z-index="0.1" class="highcharts-series highcharts-series-1 highcharts-line-series highcharts-color-1 " transform="translate(590,308) rotate(90) scale(-1,1) scale(1 1)" clip-path="url(#highcharts-ivd3aej-18)"><path fill="none" d="M 234.9 364 L 182.7 381.15999999999997 L 130.5 364 L 78.3 190.83999999999997 L 26.1 346.84000000000003" class="highcharts-graph" data-z-index="1" stroke="#434348" stroke-width="2" stroke-linejoin="round" stroke-linecap="round"></path></g><g data-z-index="0.1" class="highcharts-markers highcharts-series-1 highcharts-line-series highcharts-color-1 " transform="translate(590,308) rotate(90) scale(-1,1) scale(1 1)" clip-path="none"><path fill="white" d="M 238 364 A 4 4 0 1 1 237.99999800000018 363.99600000066664 Z" stroke="#f7a35c" stroke-width="2" class="highcharts-point highcharts-color-1"></path><path fill="white" d="M 186 381 A 4 4 0 1 1 185.99999800000018 380.99600000066664 Z" stroke="#f7a35c" stroke-width="2" class="highcharts-point highcharts-color-1"></path><path fill="white" d="M 134 364 A 4 4 0 1 1 133.99999800000018 363.99600000066664 Z" stroke="#f7a35c" stroke-width="2" class="highcharts-point highcharts-color-1"></path><path fill="white" d="M 82 191 A 4 4 0 1 1 81.99999800000016 190.99600000066667 Z" stroke="#f7a35c" stroke-width="2" class="highcharts-point highcharts-color-1"></path><path fill="white" d="M 30 347 A 4 4 0 1 1 29.99999800000017 346.99600000066664 Z" stroke="#f7a35c" stroke-width="2" class="highcharts-point highcharts-color-1"></path></g></g><g class="highcharts-label" opacity="1" data-z-index="3" transform="translate(74,283)"><path fill="none" class="highcharts-label-box" d="M 0 0" stroke="#434348" stroke-width="1"></path><text x="0" data-z-index="1" style="font-weight:bold;color:#434348;fill:#434348;" y="12">Average</text></g><text x="300" text-anchor="middle" class="highcharts-title" data-z-index="4" style="color:#333333;font-size:18px;fill:#333333;" y="24"><tspan>Combination chart</tspan></text><text x="300" text-anchor="middle" class="highcharts-subtitle" data-z-index="4" style="color:#666666;fill:#666666;" y="46"></text><g class="highcharts-legend" data-z-index="7" transform="translate(226,360)"><rect fill="none" class="highcharts-legend-box" rx="0" ry="0" x="0" y="0" width="148" height="25" visibility="visible"></rect><g data-z-index="1"><g><g class="highcharts-legend-item highcharts-bar-series highcharts-color-0 highcharts-series-0" data-z-index="1" transform="translate(8,3)"><text x="21" style="color:#333333;cursor:pointer;font-size:12px;font-weight:bold;fill:#333333;" text-anchor="start" data-z-index="2" y="15"><tspan>Joe</tspan></text><rect x="2" y="4" width="12" height="12" fill="#7cb5ec" rx="6" ry="6" class="highcharts-point" data-z-index="3"></rect></g><g class="highcharts-legend-item highcharts-line-series highcharts-color-1 highcharts-series-1" data-z-index="1" transform="translate(69.125,3)"><path fill="none" d="M 0 11 L 16 11" class="highcharts-graph" stroke="#434348" stroke-width="2"></path><path fill="white" d="M 12 11 A 4 4 0 1 1 11.999998000000167 10.996000000666664 Z" class="highcharts-point" stroke="#f7a35c" stroke-width="2"></path><text x="21" y="15" style="color:#333333;cursor:pointer;font-size:12px;font-weight:bold;fill:#333333;" text-anchor="start" data-z-index="2"><tspan>Average</tspan></text></g></g></g></g><g class="highcharts-axis-labels highcharts-xaxis-labels " data-z-index="7"><text x="55" style="color:#666666;cursor:default;font-size:11px;fill:#666666;" text-anchor="end" transform="translate(0,0)" y="78" opacity="1">Apples</text><text x="55" style="color:#666666;cursor:default;font-size:11px;fill:#666666;" text-anchor="end" transform="translate(0,0)" y="130" opacity="1">Oranges</text><text x="55" style="color:#666666;cursor:default;font-size:11px;fill:#666666;" text-anchor="end" transform="translate(0,0)" y="182" opacity="1">Pears</text><text x="55" style="color:#666666;cursor:default;font-size:11px;fill:#666666;" text-anchor="end" transform="translate(0,0)" y="234" opacity="1">Bananas</text><text x="55" style="color:#666666;cursor:default;font-size:11px;fill:#666666;" text-anchor="end" transform="translate(0,0)" y="286" opacity="1">Plums</text></g><g class="highcharts-axis-labels highcharts-yaxis-labels " data-z-index="7"><text x="70" style="color:#666666;cursor:default;font-size:11px;fill:#666666;" text-anchor="middle" transform="translate(0,0)" y="327" opacity="1">0</text><text x="122" style="color:#666666;cursor:default;font-size:11px;fill:#666666;" text-anchor="middle" transform="translate(0,0)" y="327" opacity="1">1</text><text x="174" style="color:#666666;cursor:default;font-size:11px;fill:#666666;" text-anchor="middle" transform="translate(0,0)" y="327" opacity="1">2</text><text x="226" style="color:#666666;cursor:default;font-size:11px;fill:#666666;" text-anchor="middle" transform="translate(0,0)" y="327" opacity="1">3</text><text x="278" style="color:#666666;cursor:default;font-size:11px;fill:#666666;" text-anchor="middle" transform="translate(0,0)" y="327" opacity="1">4</text><text x="330" style="color:#666666;cursor:default;font-size:11px;fill:#666666;" text-anchor="middle" transform="translate(0,0)" y="327" opacity="1">5</text><text x="382" style="color:#666666;cursor:default;font-size:11px;fill:#666666;" text-anchor="middle" transform="translate(0,0)" y="327" opacity="1">6</text><text x="434" style="color:#666666;cursor:default;font-size:11px;fill:#666666;" text-anchor="middle" transform="translate(0,0)" y="327" opacity="1">7</text><text x="486" style="color:#666666;cursor:default;font-size:11px;fill:#666666;" text-anchor="middle" transform="translate(0,0)" y="327" opacity="1">8</text><text x="538" style="color:#666666;cursor:default;font-size:11px;fill:#666666;" text-anchor="middle" transform="translate(0,0)" y="327" opacity="1">9</text><text x="583.046875" style="color:#666666;cursor:default;font-size:11px;fill:#666666;" text-anchor="middle" transform="translate(0,0)" y="327" opacity="1">10</text></g><text x="590" class="highcharts-credits" text-anchor="end" data-z-index="8" style="cursor:pointer;color:#999999;font-size:9px;fill:#999999;" y="395">Highcharts.com</text></svg>