<?xml version="1.0" standalone="no"?><!DOCTYPE svg PUBLIC "-//W3C//DTD SVG 1.1//EN" "http://www.w3.org/Graphics/SVG/1.1/DTD/svg11.dtd"><svg xmlns:xlink="http://www.w3.org/1999/xlink" version="1.1" class="highcharts-root" style="font-family:&quot;Lucida Grande&quot;, &quot;Lucida Sans Unicode&quot;, Arial, Helvetica, sans-serif;font-size:12px;" xmlns="http://www.w3.org/2000/svg" width="600" height="400" viewBox="0 0 600 400"><desc>Created with Highcharts 7.0.1</desc><defs><clipPath id="highcharts-pv8gals-18"><rect x="0" y="0" width="524" height="280" fill="none"></rect></clipPath></defs><rect fill="#ffffff" class="highcharts-background" x="0" y="0" width="600" height="400" rx="0" ry="0"></rect><rect fill="none" class="highcharts-plot-background" x="66" y="47" width="524" height="280"></rect><g class="highcharts-grid highcharts-xaxis-grid " data-z-index="1"><path fill="none" data-z-index="1" class="highcharts-grid-line" d="M 170.5 47 L 170.5 327" opacity="1"></path><path fill="none" data-z-index="1" class="highcharts-grid-line" d="M 275.5 47 L 275.5 327" opacity="1"></path><path fill="none" data-z-index="1" class="highcharts-grid-line" d="M 379.5 47 L 379.5 327" opacity="1"></path><path fill="none" data-z-index="1" class="highcharts-grid-line" d="M 484.5 47 L 484.5 327" opacity="1"></path><path fill="none" data-z-index="1" class="highcharts-grid-line" d="M 589.5 47 L 589.5 327" opacity="1"></path><path fill="none" data-z-index="1" class="highcharts-grid-line" d="M 65.5 47 L 65.5 327" opacity="1"></path></g><g class="highcharts-grid highcharts-yaxis-grid " data-z-index="1"><path fill="none" stroke="#e6e6e6" stroke-width="1" data-z-index="1" class="highcharts-grid-line" d="M 66 327.5 L 590 327.5" opacity="1"></path><path fill="none" stroke="#e6e6e6" stroke-width="1" data-z-index="1" class="highcharts-grid-line" d="M 66 257.5 L 590 257.5" opacity="1"></path><path fill="none" stroke="#e6e6e6" stroke-width="1" data-z-index="1" class="highcharts-grid-line" d="M 66 187.5 L 590 187.5" opacity="1"></path><path fill="none" stroke="#e6e6e6" stroke-width="1" data-z-index="1" class="highcharts-grid-line" d="M 66 117.5 L 590 117.5" opacity="1"></path><path fill="none" stroke="#e6e6e6" stroke-width="1" data-z-index="1" class="highcharts-grid-line" d="M 66 46.5 L 590 46.5" opacity="1"></path></g><rect fill="none" class="highcharts-plot-border" data-z-index="1" x="66" y="47" width="524" height="280"></rect><g class="highcharts-axis highcharts-xaxis " data-z-index="2"><path fill="none" class="highcharts-tick" stroke="#ccd6eb" stroke-width="1" d="M 170.5 327 L 170.5 337" opacity="1"></path><path fill="none" class="highcharts-tick" stroke="#ccd6eb" stroke-width="1" d="M 275.5 327 L 275.5 337" opacity="1"></path><path fill="none" class="highcharts-tick" stroke="#ccd6eb" stroke-width="1" d="M 379.5 327 L 379.5 337" opacity="1"></path><path fill="none" class="highcharts-tick" stroke="#ccd6eb" stroke-width="1" d="M 484.5 327 L 484.5 337" opacity="1"></path><path fill="none" class="highcharts-tick" stroke="#ccd6eb" stroke-width="1" d="M 590.5 327 L 590.5 337" opacity="1"></path><path fill="none" class="highcharts-tick" stroke="#ccd6eb" stroke-width="1" d="M 65.5 327 L 65.5 337" opacity="1"></path><path fill="none" class="highcharts-axis-line" stroke="#ccd6eb" stroke-width="1" data-z-index="7" d="M 66 327.5 L 590 327.5"></path></g><g class="highcharts-axis highcharts-yaxis " data-z-index="2"><text x="23.609375" data-z-index="7" text-anchor="middle" transform="translate(0,0) rotate(270 23.609375 187)" class="highcharts-axis-title" style="color:#666666;fill:#666666;" y="187"><tspan>Values</tspan></text><path fill="none" class="highcharts-axis-line" data-z-index="7" d="M 66 47 L 66 327"></path></g><text x="116" y="77" data-z-index="2" style="position:absolute;color:black;fill:black;"><tspan>Total fruit consumption</tspan></text><g class="highcharts-series-group" data-z-index="3"><g data-z-index="0.1" class="highcharts-series highcharts-series-0 highcharts-column-series highcharts-color-0 " transform="translate(66,47) scale(1 1)" clip-path="url(#highcharts-pv8gals-18)"><rect x="26.5" y="168.5" width="51" height="112" fill="#7cb5ec" stroke="#ffffff" stroke-width="1" class="highcharts-point highcharts-color-0"></rect><rect x="131.5" y="196.5" width="51" height="84" fill="#7cb5ec" stroke="#ffffff" stroke-width="1" class="highcharts-point highcharts-color-0"></rect><rect x="236.5" y="196.5" width="51" height="84" fill="#7cb5ec" stroke="#ffffff" stroke-width="1" class="highcharts-point highcharts-color-0"></rect><rect x="341.5" y="28.5" width="51" height="252" fill="#7cb5ec" stroke="#ffffff" stroke-width="1" class="highcharts-point highcharts-color-0"></rect><rect x="445.5" y="280.5" width="51" height="0" fill="#7cb5ec" stroke="#ffffff" stroke-width="1" class="highcharts-point highcharts-color-0"></rect></g><g data-z-index="0.1" class="highcharts-markers highcharts-series-0 highcharts-column-series highcharts-color-0 " transform="translate(66,47) scale(1 1)" clip-path="none"></g><g data-z-index="0.1" class="highcharts-series highcharts-series-1 highcharts-line-series highcharts-color-1 " transform="translate(66,47) scale(1 1)" clip-path="url(#highcharts-pv8gals-18)"><path fill="none" d="M 52.4 196 L 157.2 205.24 L 262 196 L 366.8 102.75999999999999 L 471.6 186.76" class="highcharts-graph" data-z-index="1" stroke="#434348" stroke-width="2" stroke-linejoin="round" stroke-linecap="round"></path></g><g data-z-index="0.1" class="highcharts-markers highcharts-series-1 highcharts-line-series highcharts-color-1 " transform="translate(66,47) scale(1 1)" clip-path="none"><path fill="white" d="M 56 196 A 4 4 0 1 1 55.99999800000017 195.99600000066667 Z" stroke="#f7a35c" stroke-width="2" class="highcharts-point highcharts-color-1"></path><path fill="white" d="M 161 205 A 4 4 0 1 1 160.99999800000018 204.99600000066667 Z" stroke="#f7a35c" stroke-width="2" class="highcharts-point highcharts-color-1"></path><path fill="white" d="M 266 196 A 4 4 0 1 1 265.9999980000002 195.99600000066667 Z" stroke="#f7a35c" stroke-width="2" class="highcharts-point highcharts-color-1"></path><path fill="white" d="M 370 103 A 4 4 0 1 1 369.9999980000002 102.99600000066667 Z" stroke="#f7a35c" stroke-width="2" class="highcharts-point highcharts-color-1"></path><path fill="white" d="M 475 187 A 4 4 0 1 1 474.9999980000002 186.99600000066667 Z" stroke="#f7a35c" stroke-width="2" class="highcharts-point highcharts-color-1"></path></g></g><g class="highcharts-label" opacity="1" data-z-index="3" transform="translate(485,237)"><path fill="none" class="highcharts-label-box" d="M 0 0" stroke="#434348" stroke-width="1"></path><text x="0" data-z-index="1" style="font-weight:bold;color:#434348;fill:#434348;" y="12">Average</text></g><text x="300" text-anchor="middle" class="highcharts-title" data-z-index="4" style="color:#333333;font-size:18px;fill:#333333;" y="24"><tspan>Combination chart</tspan></text><text x="300" text-anchor="middle" class="highcharts-subtitle" data-z-index="4" style="color:#666666;fill:#666666;" y="46"></text><g class="highcharts-legend" data-z-index="7" transform="translate(226,360)"><rect fill="none" class="highcharts-legend-box" rx="0" ry="0" x="0" y="0" width="148" height="25" visibility="visible"></rect><g data-z-index="1"><g><g class="highcharts-legend-item highcharts-column-series highcharts-color-0 highcharts-series-0" data-z-index="1" transform="translate(8,3)"><text x="21" style="color:#333333;cursor:pointer;font-size:12px;font-weight:bold;fill:#333333;" text-anchor="start" data-z-index="2" y="15"><tspan>Joe</tspan></text><rect x="2" y="4" width="12" height="12" fill="#7cb5ec" rx="6" ry="6" class="highcharts-point" data-z-index="3"></rect></g><g class="highcharts-legend-item highcharts-line-series highcharts-color-1 highcharts-series-1" data-z-index="1" transform="translate(69.125,3)"><path fill="none" d="M 0 11 L 16 11" class="highcharts-graph" stroke="#434348" stroke-width="2"></path><path fill="white" d="M 12 11 A 4 4 0 1 1 11.999998000000167 10.996000000666664 Z" class="highcharts-point" stroke="#f7a35c" stroke-width="2"></path><text x="21" y="15" style="color:#333333;cursor:pointer;font-size:12px;font-weight:bold;fill:#333333;" text-anchor="start" data-z-index="2"><tspan>Average</tspan></text></g></g></g></g><g class="highcharts-axis-labels highcharts-xaxis-labels " data-z-index="7"><text x="118.4" style="color:#666666;cursor:default;font-size:11px;fill:#666666;" text-anchor="middle" transform="translate(0,0)" y="346" opacity="1">Apples</text><text x="223.20000000000002" style="color:#666666;cursor:default;font-size:11px;fill:#666666;" text-anchor="middle" transform="translate(0,0)" y="346" opacity="1">Oranges</text><text x="328" style="color:#666666;cursor:default;font-size:11px;fill:#666666;" text-anchor="middle" transform="translate(0,0)" y="346" opacity="1">Pears</text><text x="432.8" style="color:#666666;cursor:default;font-size:11px;fill:#666666;" text-anchor="middle" transform="translate(0,0)" y="346" opacity="1">Bananas</text><text x="537.6" style="color:#666666;cursor:default;font-size:11px;fill:#666666;" text-anchor="middle" transform="translate(0,0)" y="346" opacity="1">Plums</text></g><g class="highcharts-axis-labels highcharts-yaxis-labels " data-z-index="7"><text x="51" style="color:#666666;cursor:default;font-size:11px;fill:#666666;" text-anchor="end" transform="translate(0,0)" y="332" opacity="1">0</text><text x="51" style="color:#666666;cursor:default;font-size:11px;fill:#666666;" text-anchor="end" transform="translate(0,0)" y="262" opacity="1">2.5</text><text x="51" style="color:#666666;cursor:default;font-size:11px;fill:#666666;" text-anchor="end" transform="translate(0,0)" y="192" opacity="1">5</text><text x="51" style="color:#666666;cursor:default;font-size:11px;fill:#666666;" text-anchor="end" transform="translate(0,0)" y="122" opacity="1">7.5</text><text x="51" style="color:#666666;cursor:default;font-size:11px;fill:#666666;" text-anchor="end" transform="translate(0,0)" y="52" opacity="1">10</text></g><text x="590" class="highcharts-credits" text-anchor="end" data-z-index="8" style="cursor:pointer;color:#999999;font-size:9px;fill:#999999;" y="395">Highcharts.com</text></svg>