<?xml version="1.0" standalone="no"?><!DOCTYPE svg PUBLIC "-//W3C//DTD SVG 1.1//EN" "http://www.w3.org/Graphics/SVG/1.1/DTD/svg11.dtd"><svg xmlns:xlink="http://www.w3.org/1999/xlink" version="1.1" class="highcharts-root" style="font-family:&quot;Lucida Grande&quot;, &quot;Lucida Sans Unicode&quot;, Arial, Helvetica, sans-serif;font-size:12px;" xmlns="http://www.w3.org/2000/svg" width="600" height="400" viewBox="0 0 600 400"><desc>Created with Highcharts 7.0.1</desc><defs><clipPath id="highcharts-ikfhu71-17"><rect x="0" y="0" width="527" height="317" fill="none"></rect></clipPath></defs><rect fill="#ffffff" class="highcharts-background" x="0" y="0" width="600" height="400" rx="0" ry="0"></rect><rect fill="none" class="highcharts-plot-background" x="63" y="47" width="527" height="317"></rect><g class="highcharts-grid highcharts-xaxis-grid " data-z-index="1"><path fill="none" data-z-index="1" class="highcharts-grid-line" d="M 167.5 47 L 167.5 364" opacity="1"></path><path fill="none" data-z-index="1" class="highcharts-grid-line" d="M 273.5 47 L 273.5 364" opacity="1"></path><path fill="none" data-z-index="1" class="highcharts-grid-line" d="M 378.5 47 L 378.5 364" opacity="1"></path><path fill="none" data-z-index="1" class="highcharts-grid-line" d="M 484.5 47 L 484.5 364" opacity="1"></path><path fill="none" data-z-index="1" class="highcharts-grid-line" d="M 589.5 47 L 589.5 364" opacity="1"></path><path fill="none" data-z-index="1" class="highcharts-grid-line" d="M 62.5 47 L 62.5 364" opacity="1"></path></g><g class="highcharts-grid highcharts-yaxis-grid " data-z-index="1"><path fill="none" stroke="#e6e6e6" stroke-width="1" data-z-index="1" class="highcharts-grid-line" d="M 63 364.5 L 590 364.5" opacity="1"></path><path fill="none" stroke="#e6e6e6" stroke-width="1" data-z-index="1" class="highcharts-grid-line" d="M 63 301.5 L 590 301.5" opacity="1"></path><path fill="none" stroke="#e6e6e6" stroke-width="1" data-z-index="1" class="highcharts-grid-line" d="M 63 237.5 L 590 237.5" opacity="1"></path><path fill="none" stroke="#e6e6e6" stroke-width="1" data-z-index="1" class="highcharts-grid-line" d="M 63 174.5 L 590 174.5" opacity="1"></path><path fill="none" stroke="#e6e6e6" stroke-width="1" data-z-index="1" class="highcharts-grid-line" d="M 63 110.5 L 590 110.5" opacity="1"></path><path fill="none" stroke="#e6e6e6" stroke-width="1" data-z-index="1" class="highcharts-grid-line" d="M 63 46.5 L 590 46.5" opacity="1"></path></g><rect fill="none" class="highcharts-plot-border" data-z-index="1" x="63" y="47" width="527" height="317"></rect><g class="highcharts-axis highcharts-xaxis " data-z-index="2"><path fill="none" class="highcharts-tick" stroke="#ccd6eb" stroke-width="1" d="M 167.5 364 L 167.5 374" opacity="1"></path><path fill="none" class="highcharts-tick" stroke="#ccd6eb" stroke-width="1" d="M 273.5 364 L 273.5 374" opacity="1"></path><path fill="none" class="highcharts-tick" stroke="#ccd6eb" stroke-width="1" d="M 378.5 364 L 378.5 374" opacity="1"></path><path fill="none" class="highcharts-tick" stroke="#ccd6eb" stroke-width="1" d="M 484.5 364 L 484.5 374" opacity="1"></path><path fill="none" class="highcharts-tick" stroke="#ccd6eb" stroke-width="1" d="M 590.5 364 L 590.5 374" opacity="1"></path><path fill="none" class="highcharts-tick" stroke="#ccd6eb" stroke-width="1" d="M 62.5 364 L 62.5 374" opacity="1"></path><path fill="none" class="highcharts-axis-line" stroke="#ccd6eb" stroke-width="1" data-z-index="7" d="M 63 364.5 L 590 364.5"></path></g><g class="highcharts-axis highcharts-yaxis " data-z-index="2"><text x="24.09375" data-z-index="7" text-anchor="middle" transform="translate(0,0) rotate(270 24.09375 205.5)" class="highcharts-axis-title" style="color:#666666;fill:#666666;" y="205.5"><tspan>Values</tspan></text><path fill="none" class="highcharts-axis-line" data-z-index="7" d="M 63 47 L 63 364"></path></g><g class="highcharts-series-group" data-z-index="3"><g data-z-index="0.1" class="highcharts-series highcharts-series-0 highcharts-line-series highcharts-color-0 " transform="translate(63,47) scale(1 1)" clip-path="url(#highcharts-ikfhu71-17)"><path fill="none" d="M 52.7 253.6 L 158.1 221.9 L 263.5 158.5 L 368.9 95.1 L 474.3 126.80000000000001" class="highcharts-graph" data-z-index="1" stroke="#7cb5ec" stroke-width="2" stroke-linejoin="round" stroke-linecap="round"></path></g><g data-z-index="0.1" class="highcharts-markers highcharts-series-0 highcharts-line-series highcharts-color-0 " transform="translate(63,47) scale(1 1)" clip-path="none"><path fill="#7cb5ec" d="M 56 254 A 4 4 0 1 1 55.99999800000017 253.99600000066667 Z" class="highcharts-point highcharts-color-0"></path><path fill="#7cb5ec" d="M 162 222 A 4 4 0 1 1 161.99999800000018 221.99600000066667 Z" class="highcharts-point highcharts-color-0"></path><path fill="#7cb5ec" d="M 267 159 A 4 4 0 1 1 266.9999980000002 158.99600000066667 Z" class="highcharts-point highcharts-color-0"></path><path fill="#7cb5ec" d="M 372 95 A 4 4 0 1 1 371.9999980000002 94.99600000066667 Z" class="highcharts-point highcharts-color-0"></path><path fill="#7cb5ec" d="M 478 127 A 4 4 0 1 1 477.9999980000002 126.99600000066667 Z" class="highcharts-point highcharts-color-0"></path></g><g data-z-index="0.1" class="highcharts-series highcharts-series-1 highcharts-line-series highcharts-color-1 " transform="translate(63,47) scale(1 1)" clip-path="url(#highcharts-ikfhu71-17)"><path fill="none" d="M 52.7 190.2 L 158.1 221.9 L 263.5 221.9 L 368.9 31.69999999999999 L 474.3 317" class="highcharts-graph" data-z-index="1" stroke="#434348" stroke-width="2" stroke-linejoin="round" stroke-linecap="round"></path></g><g data-z-index="0.1" class="highcharts-markers highcharts-series-1 highcharts-line-series highcharts-color-1 " transform="translate(63,47) scale(1 1)" clip-path="none"><path fill="#434348" d="M 52 186 L 56 190 52 194 48 190 Z" class="highcharts-point highcharts-color-1"></path><path fill="#434348" d="M 158 218 L 162 222 158 226 154 222 Z" class="highcharts-point highcharts-color-1"></path><path fill="#434348" d="M 263 218 L 267 222 263 226 259 222 Z" class="highcharts-point highcharts-color-1"></path><path fill="#434348" d="M 368 28 L 372 32 368 36 364 32 Z" class="highcharts-point highcharts-color-1"></path><path fill="#434348" d="M 474 313 L 478 317 474 321 470 317 Z" class="highcharts-point highcharts-color-1"></path></g></g><g class="highcharts-label" opacity="1" data-z-index="3" transform="translate(540,157)"><path fill="none" class="highcharts-label-box" d="M 0 0" stroke="#7cb5ec" stroke-width="1"></path><text x="0" data-z-index="1" style="font-weight:bold;color:#7cb5ec;fill:#7cb5ec;" y="12">John</text></g><g class="highcharts-label" opacity="1" data-z-index="3" transform="translate(540,347)"><path fill="none" class="highcharts-label-box" d="M 0 0" stroke="#434348" stroke-width="1"></path><text x="0" data-z-index="1" style="font-weight:bold;color:#434348;fill:#434348;" y="12">Joe</text></g><text x="300" text-anchor="middle" class="highcharts-title" data-z-index="4" style="color:#333333;font-size:18px;fill:#333333;" y="24"><tspan>Chart title</tspan></text><text x="300" text-anchor="middle" class="highcharts-subtitle" data-z-index="4" style="color:#666666;fill:#666666;" y="46"></text><g class="highcharts-axis-labels highcharts-xaxis-labels " data-z-index="7"><text x="115.7" style="color:#666666;cursor:default;font-size:11px;fill:#666666;" text-anchor="middle" transform="translate(0,0)" y="383" opacity="1">Apples</text><text x="221.10000000000002" style="color:#666666;cursor:default;font-size:11px;fill:#666666;" text-anchor="middle" transform="translate(0,0)" y="383" opacity="1">Oranges</text><text x="326.5" style="color:#666666;cursor:default;font-size:11px;fill:#666666;" text-anchor="middle" transform="translate(0,0)" y="383" opacity="1">Pears</text><text x="431.90000000000003" style="color:#666666;cursor:default;font-size:11px;fill:#666666;" text-anchor="middle" transform="translate(0,0)" y="383" opacity="1">Bananas</text><text x="537.3" style="color:#666666;cursor:default;font-size:11px;fill:#666666;" text-anchor="middle" transform="translate(0,0)" y="383" opacity="1">Plums</text></g><g class="highcharts-axis-labels highcharts-yaxis-labels " data-z-index="7"><text x="48" style="color:#666666;cursor:default;font-size:11px;fill:#666666;" text-anchor="end" transform="translate(0,0)" y="369" opacity="1">0</text><text x="48" style="color:#666666;cursor:default;font-size:11px;fill:#666666;" text-anchor="end" transform="translate(0,0)" y="305" opacity="1">2</text><text x="48" style="color:#666666;cursor:default;font-size:11px;fill:#666666;" text-anchor="end" transform="translate(0,0)" y="242" opacity="1">4</text><text x="48" style="color:#666666;cursor:default;font-size:11px;fill:#666666;" text-anchor="end" transform="translate(0,0)" y="178" opacity="1">6</text><text x="48" style="color:#666666;cursor:default;font-size:11px;fill:#666666;" text-anchor="end" transform="translate(0,0)" y="115" opacity="1">8</text><text x="48" style="color:#666666;cursor:default;font-size:11px;fill:#666666;" text-anchor="end" transform="translate(0,0)" y="52" opacity="1">10</text></g><text x="590" class="highcharts-credits" text-anchor="end" data-z-index="8" style="cursor:pointer;color:#999999;font-size:9px;fill:#999999;" y="395">Highcharts.com</text></svg>