<svg id="svg" version="1.1" width="400" height="297.8978978978979" viewBox="0 0 400 297.8978978978979" xmlns="http://www.w3.org/2000/svg" xmlns:xlink="http://www.w3.org/1999/xlink" ><g id="svgg"><path id="path0" d="M8.686 9.762 C 8.474 10.160,8.787 10.919,10.006 12.966 C 10.884 14.441,11.843 16.078,12.135 16.603 C 12.428 17.129,13.741 19.380,15.052 21.607 C 16.364 23.834,17.913 26.557,18.495 27.657 C 19.078 28.757,20.026 30.395,20.603 31.297 C 21.179 32.198,23.184 35.595,25.058 38.844 C 26.932 42.093,28.733 45.188,29.061 45.720 C 29.696 46.752,33.394 53.201,34.635 55.440 C 35.043 56.177,36.583 58.793,38.056 61.252 C 39.529 63.711,41.436 66.930,42.292 68.405 C 43.149 69.881,43.970 71.289,44.117 71.535 C 44.265 71.781,45.605 74.128,47.097 76.751 C 48.588 79.374,51.157 83.800,52.806 86.587 C 54.454 89.374,56.178 92.337,56.636 93.173 C 57.094 94.008,57.895 95.416,58.416 96.302 C 58.937 97.188,60.998 100.728,62.995 104.167 C 66.064 109.451,66.765 110.467,67.516 110.713 C 68.700 111.101,68.695 111.095,68.260 111.620 C 67.677 112.322,68.067 113.819,69.389 115.957 C 70.044 117.017,71.030 118.718,71.579 119.738 C 73.495 123.293,79.416 133.395,80.538 135.022 C 81.160 135.924,81.669 136.754,81.669 136.868 C 81.669 136.981,83.081 139.529,84.807 142.531 C 88.138 148.325,88.263 148.540,89.363 150.333 C 90.500 152.188,95.368 160.632,96.516 162.742 C 97.096 163.808,98.973 167.027,100.687 169.896 C 102.402 172.765,104.037 175.514,104.321 176.006 C 105.751 178.483,106.170 179.095,106.534 179.234 C 106.752 179.318,105.703 177.352,104.203 174.865 C 102.016 171.239,94.466 158.218,91.331 152.666 C 90.797 151.722,88.206 147.423,87.342 146.051 C 86.584 144.845,85.016 142.069,83.808 139.791 C 83.068 138.398,81.642 135.917,80.639 134.277 C 79.635 132.638,77.769 129.486,76.492 127.273 C 75.215 125.060,73.772 122.595,73.286 121.795 C 72.800 120.995,71.957 119.520,71.413 118.516 C 70.869 117.513,70.003 115.981,69.489 115.114 C 68.434 113.332,68.289 112.370,69.076 112.369 C 69.754 112.368,331.775 112.368,332.265 112.369 C 332.965 112.370,332.638 113.483,331.222 115.918 C 330.443 117.257,329.606 118.717,329.361 119.162 C 329.116 119.606,327.866 121.781,326.584 123.994 C 323.613 129.124,324.003 128.448,322.049 131.844 C 321.121 133.457,319.987 135.334,319.529 136.017 C 319.071 136.699,317.662 139.136,316.398 141.431 C 315.134 143.726,312.981 147.481,311.612 149.776 C 310.244 152.072,308.549 154.955,307.846 156.185 C 307.142 157.414,306.364 158.767,306.115 159.191 C 305.867 159.616,304.673 161.695,303.464 163.811 C 300.229 169.471,295.396 177.668,294.720 178.639 L 294.133 179.484 294.757 179.150 C 295.100 178.966,295.583 178.385,295.829 177.858 C 296.075 177.331,297.137 175.492,298.188 173.770 C 299.795 171.140,302.140 167.128,303.502 164.680 C 304.103 163.598,305.698 160.856,307.782 157.318 C 312.854 148.708,316.244 142.811,316.244 142.601 C 316.244 142.475,316.431 142.160,316.658 141.901 C 316.886 141.642,317.445 140.693,317.900 139.791 C 318.356 138.890,319.148 137.548,319.660 136.811 C 320.582 135.482,322.497 132.226,324.217 129.061 C 325.265 127.133,326.843 124.476,327.620 123.334 C 327.922 122.889,328.787 121.346,329.542 119.906 C 330.297 118.466,331.087 117.086,331.296 116.841 C 331.766 116.289,333.113 113.642,333.366 112.774 C 333.481 112.380,333.375 111.957,333.090 111.672 C 332.673 111.255,332.724 111.164,333.625 110.737 C 334.597 110.276,337.182 106.239,341.706 98.117 C 342.374 96.918,343.189 95.482,343.517 94.926 C 343.845 94.370,345.501 91.528,347.198 88.612 C 348.894 85.695,351.012 82.101,351.905 80.626 C 352.798 79.151,353.941 77.139,354.445 76.155 C 355.313 74.464,358.472 69.040,359.914 66.766 C 360.278 66.192,361.499 64.135,362.627 62.195 C 363.756 60.255,364.948 58.216,365.276 57.663 C 365.604 57.111,366.699 55.144,367.710 53.292 C 368.720 51.441,369.873 49.448,370.271 48.864 C 370.830 48.043,374.317 42.117,376.749 37.854 C 376.889 37.608,378.062 35.596,379.355 33.383 C 380.648 31.170,383.039 27.044,384.668 24.215 C 387.847 18.694,388.825 17.013,391.309 12.808 C 392.605 10.613,392.834 10.031,392.539 9.676 C 391.928 8.939,9.077 9.024,8.686 9.762 M128.823 268.018 C 128.218 268.622,128.323 284.763,128.935 285.375 C 129.582 286.022,271.841 285.953,272.489 285.306 C 272.985 284.810,273.218 269.696,272.748 268.461 L 272.444 267.660 200.812 267.660 C 145.496 267.660,129.099 267.742,128.823 268.018 " stroke="none" fill="#7eb1ec" fill-rule="evenodd"></path><path id="path1" d="M69.052 112.568 C 68.942 112.677,68.852 112.939,68.852 113.148 C 68.852 113.532,76.373 126.820,77.687 128.758 C 78.074 129.329,78.390 129.902,78.390 130.033 C 78.390 130.164,79.215 131.574,80.223 133.168 C 81.230 134.762,82.891 137.610,83.913 139.498 C 84.935 141.386,86.900 144.806,88.279 147.098 C 89.659 149.391,90.979 151.602,91.213 152.012 C 91.746 152.947,93.633 156.136,94.123 156.930 C 94.325 157.258,94.650 157.861,94.846 158.271 C 95.042 158.681,95.428 159.352,95.703 159.762 C 95.979 160.171,96.604 161.244,97.093 162.146 C 97.582 163.048,98.253 164.255,98.584 164.829 C 102.157 171.024,103.556 173.394,103.863 173.770 C 104.062 174.016,104.723 175.121,105.330 176.226 C 105.937 177.330,106.687 178.370,106.997 178.536 C 108.146 179.150,294.015 178.932,294.536 178.316 C 295.080 177.672,300.420 168.675,302.542 164.829 C 303.401 163.271,304.555 161.290,305.107 160.426 C 305.659 159.563,306.110 158.782,306.110 158.693 C 306.110 158.538,308.941 153.730,312.675 147.541 C 313.614 145.984,314.916 143.703,315.566 142.474 C 317.557 138.713,318.710 136.724,319.735 135.285 C 320.274 134.528,320.715 133.826,320.715 133.726 C 320.715 133.626,321.166 132.837,321.718 131.973 C 322.269 131.109,323.116 129.665,323.599 128.763 C 324.373 127.318,326.796 123.144,327.580 121.908 C 329.110 119.491,332.341 113.343,332.272 112.981 C 332.178 112.497,69.535 112.084,69.052 112.568 " stroke="none" fill="#45454d" fill-rule="evenodd"></path><path id="path2" d="M68.554 112.950 C 68.554 113.508,70.515 117.139,70.817 117.139 C 70.965 117.139,69.592 114.631,69.064 113.936 C 68.909 113.732,68.852 113.296,68.938 112.967 C 69.024 112.639,68.973 112.370,68.825 112.370 C 68.676 112.370,68.554 112.631,68.554 112.950 M332.238 112.908 C 332.319 113.216,331.736 114.561,330.874 116.052 C 330.047 117.485,329.486 118.585,329.629 118.497 C 330.642 117.871,333.101 112.370,332.368 112.370 C 332.219 112.370,332.161 112.612,332.238 112.908 M70.944 117.514 C 70.936 117.881,73.964 123.092,74.311 123.307 C 74.486 123.415,74.347 123.044,74.003 122.482 C 73.658 121.920,72.830 120.522,72.163 119.374 C 71.495 118.227,70.947 117.389,70.944 117.514 M328.448 120.342 C 327.775 121.685,327.785 121.818,328.480 120.777 C 328.840 120.238,329.073 119.734,328.998 119.658 C 328.922 119.583,328.675 119.890,328.448 120.342 M326.876 123.025 C 325.948 124.503,325.434 125.484,325.588 125.484 C 325.657 125.484,326.192 124.680,326.778 123.696 C 327.937 121.750,328.016 121.210,326.876 123.025 M324.750 126.553 C 324.472 126.977,324.296 127.376,324.358 127.438 C 324.421 127.501,324.708 127.154,324.995 126.667 C 325.638 125.580,325.446 125.491,324.750 126.553 M77.557 129.041 C 77.928 129.686,78.283 130.162,78.345 130.100 C 78.474 129.971,77.221 127.869,77.016 127.869 C 76.942 127.869,77.186 128.396,77.557 129.041 M79.544 132.489 C 79.705 132.817,80.056 133.353,80.322 133.681 L 80.808 134.277 80.515 133.681 C 80.354 133.353,80.004 132.817,79.737 132.489 L 79.252 131.893 79.544 132.489 M321.173 132.813 C 320.895 133.237,320.719 133.635,320.782 133.698 C 320.844 133.760,321.131 133.414,321.419 132.927 C 322.061 131.839,321.869 131.750,321.173 132.813 M81.186 135.085 C 81.451 135.530,82.150 136.770,82.739 137.842 C 83.328 138.914,83.874 139.791,83.953 139.791 C 84.174 139.791,81.968 135.805,81.299 134.997 L 80.704 134.277 81.186 135.085 M318.828 136.587 C 317.482 138.782,315.621 142.248,315.730 142.357 C 315.800 142.427,316.276 141.711,316.788 140.765 C 317.300 139.820,318.127 138.342,318.627 137.481 C 319.500 135.977,319.672 135.210,318.828 136.587 M84.059 140.166 C 84.050 140.534,87.079 145.745,87.426 145.959 C 87.601 146.068,87.462 145.697,87.117 145.135 C 86.773 144.573,85.945 143.174,85.277 142.027 C 84.610 140.879,84.062 140.042,84.059 140.166 M314.507 144.411 C 314.019 145.313,313.743 145.974,313.894 145.880 C 314.201 145.691,315.734 142.772,315.527 142.772 C 315.454 142.772,314.995 143.510,314.507 144.411 M87.634 146.401 C 87.630 146.599,90.209 150.891,91.069 152.118 C 91.920 153.333,91.489 152.276,90.508 150.741 C 89.959 149.882,89.089 148.510,88.574 147.690 C 88.059 146.870,87.636 146.290,87.634 146.401 M311.457 149.553 C 310.614 150.987,309.644 152.621,309.302 153.182 C 308.959 153.744,308.822 154.115,308.998 154.007 C 309.173 153.899,310.023 152.567,310.886 151.048 C 311.749 149.529,312.653 147.984,312.894 147.615 C 313.135 147.247,313.255 146.945,313.161 146.945 C 313.066 146.945,312.299 148.118,311.457 149.553 M93.029 155.585 C 93.397 156.239,93.756 156.716,93.828 156.644 C 93.972 156.500,92.734 154.396,92.505 154.396 C 92.426 154.396,92.662 154.931,93.029 155.585 M307.213 156.706 C 306.648 157.649,306.136 158.555,306.074 158.719 C 306.012 158.883,305.208 160.292,304.288 161.849 C 303.368 163.406,301.700 166.289,300.582 168.256 C 299.464 170.224,298.348 172.168,298.102 172.578 C 297.856 172.988,297.806 173.189,297.991 173.025 C 298.268 172.780,303.700 163.497,306.625 158.271 C 307.038 157.534,307.639 156.494,307.960 155.961 C 308.281 155.428,308.475 154.993,308.392 154.993 C 308.308 154.993,307.778 155.764,307.213 156.706 M94.161 157.526 C 94.678 158.537,95.073 159.033,95.077 158.677 C 95.080 158.490,94.806 158.021,94.469 157.634 C 93.987 157.081,93.921 157.058,94.161 157.526 M95.869 160.581 C 96.959 162.481,97.466 163.225,97.466 162.922 C 97.466 162.607,95.387 159.165,95.197 159.165 C 95.120 159.165,95.422 159.803,95.869 160.581 M97.735 163.785 C 98.237 164.758,98.650 165.297,98.648 164.978 C 98.646 164.814,98.371 164.344,98.036 163.934 C 97.631 163.439,97.530 163.389,97.735 163.785 M99.031 166.021 C 99.270 166.431,100.148 167.973,100.981 169.449 C 101.815 170.924,102.720 172.399,102.994 172.727 C 103.469 173.297,103.471 173.290,103.056 172.578 C 102.816 172.168,101.939 170.626,101.105 169.151 C 100.272 167.675,99.366 166.200,99.093 165.872 C 98.618 165.302,98.615 165.309,99.031 166.021 M104.193 174.848 C 105.890 177.802,107.022 179.459,107.455 179.625 C 107.699 179.719,107.905 180.150,107.913 180.583 C 107.920 181.017,108.387 182.176,108.949 183.159 C 109.511 184.143,110.223 185.417,110.531 185.991 C 111.628 188.035,116.654 196.614,118.214 199.106 C 119.086 200.499,120.426 202.779,121.192 204.173 C 121.958 205.566,123.328 207.981,124.236 209.538 C 125.145 211.095,126.468 213.372,127.176 214.598 L 128.465 216.826 128.465 230.746 C 128.465 243.004,128.521 244.723,128.933 245.135 C 129.651 245.853,271.541 245.853,272.259 245.135 C 272.671 244.723,272.727 243.016,272.727 230.883 L 272.727 217.099 273.563 215.479 C 274.022 214.589,274.739 213.323,275.157 212.668 C 275.574 212.012,276.387 210.604,276.964 209.538 C 277.541 208.472,279.122 205.723,280.478 203.428 C 281.833 201.133,284.949 195.768,287.400 191.505 C 289.852 187.243,292.144 183.353,292.493 182.861 C 292.868 182.333,293.129 181.509,293.130 180.849 C 293.130 180.235,293.278 179.732,293.458 179.732 C 293.928 179.732,294.855 178.620,295.817 176.900 C 296.275 176.080,296.912 174.974,297.232 174.441 C 297.552 173.908,297.741 173.472,297.653 173.472 C 297.565 173.472,296.926 174.445,296.234 175.633 C 295.541 176.822,294.776 178.029,294.535 178.316 C 294.011 178.937,108.145 179.150,106.988 178.530 C 106.672 178.362,105.864 177.222,105.193 175.998 C 104.521 174.775,103.833 173.688,103.664 173.583 C 103.494 173.479,103.732 174.048,104.193 174.848 " stroke="none" fill="#94eb7c" fill-rule="evenodd"></path><path id="path3" d="M128.933 246.370 C 128.365 246.938,128.218 265.152,128.774 266.189 C 129.209 267.003,271.447 267.110,272.259 266.298 C 272.965 265.592,272.965 247.076,272.259 246.370 C 271.541 245.652,129.651 245.652,128.933 246.370 " stroke="none" fill="#f4a45c" fill-rule="evenodd"></path></g></svg>